<svg width="2243" height="315" viewBox="0 0 2243 315" fill="none" xmlns="http://www.w3.org/2000/svg">
<path d="M255.55 256.095C289.949 256.095 325.789 314.088 394.227 314.088C460.683 314.088 510.753 253.754 510.753 174.51C510.753 44.6575 396.387 30.2495 255.55 30.2495C114.531 30.2495 0.16748 44.8376 0.16748 174.51C0.16748 253.754 50.2353 314.088 116.692 314.088C185.131 314.088 220.971 256.095 255.55 256.095Z" fill="url(#paint0_linear_50_34521)"/>
<path d="M255.55 226.351C289.949 226.351 325.789 284.345 394.227 284.345C460.683 284.345 510.753 224.011 510.753 144.766C510.753 14.9139 396.387 0.505859 255.55 0.505859C114.531 0.505859 0.16748 15.094 0.16748 144.766C0.16748 224.011 50.2353 284.345 116.692 284.345C185.131 284.345 220.971 226.351 255.55 226.351Z" fill="url(#paint1_linear_50_34521)"/>
<path d="M2148.91 257.057V96.4429H2179.67L2182.59 126.882C2188.2 116.304 2195.97 107.992 2205.9 101.948C2216.05 95.6874 2228.24 92.5571 2242.49 92.5571V128.501H2233.1C2223.6 128.501 2215.08 130.12 2207.52 133.358C2200.18 136.38 2194.24 141.67 2189.71 149.225C2185.39 156.565 2183.23 166.819 2183.23 179.988V257.057H2148.91Z" fill="url(#paint2_linear_50_34521)"/>
<path d="M2055.98 260.943C2040.22 260.943 2026.19 257.488 2013.88 250.58C2001.79 243.456 1992.29 233.634 1985.39 221.113C1978.48 208.592 1975.02 194.02 1975.02 177.397C1975.02 160.559 1978.37 145.771 1985.06 133.034C1991.97 120.298 2001.47 110.367 2013.56 103.243C2025.86 96.1191 2040.11 92.5571 2056.3 92.5571C2072.06 92.5571 2085.77 96.1191 2097.43 103.243C2109.08 110.151 2118.15 119.434 2124.63 131.091C2131.1 142.749 2134.34 155.594 2134.34 169.626C2134.34 171.785 2134.23 174.159 2134.02 176.75C2134.02 179.124 2133.91 181.823 2133.69 184.845H2008.7C2009.78 200.389 2014.85 212.262 2023.92 220.465C2033.2 228.453 2043.89 232.447 2055.98 232.447C2065.69 232.447 2073.79 230.288 2080.26 225.97C2086.96 221.437 2091.92 215.392 2095.16 207.836H2129.48C2125.17 222.948 2116.53 235.577 2103.58 245.723C2090.84 255.869 2074.98 260.943 2055.98 260.943ZM2055.98 120.729C2044.54 120.729 2034.39 124.183 2025.54 131.091C2016.69 137.784 2011.29 147.93 2009.35 161.53H2100.02C2099.37 149.009 2094.94 139.079 2086.74 131.739C2078.54 124.399 2068.28 120.729 2055.98 120.729Z" fill="url(#paint3_linear_50_34521)"/>
<path d="M1942.45 257.056C1926.69 257.056 1914.17 253.279 1904.88 245.723C1895.6 237.951 1890.96 224.243 1890.96 204.598V125.263H1863.44V96.4427H1890.96L1895.17 55.6416H1925.29V96.4427H1970.62V125.263H1925.29V204.598C1925.29 213.449 1927.12 219.602 1930.79 223.056C1934.68 226.294 1941.26 227.913 1950.54 227.913H1969V257.056H1942.45Z" fill="url(#paint4_linear_50_34521)"/>
<path d="M1800.56 260.943C1780.27 260.943 1763.54 255.977 1750.37 246.047C1737.2 236.116 1729.65 222.948 1727.7 206.541H1762.35C1764.08 213.881 1768.18 220.249 1774.66 225.646C1781.13 230.827 1789.66 233.418 1800.24 233.418C1810.6 233.418 1818.16 231.259 1822.91 226.942C1827.65 222.624 1830.03 217.659 1830.03 212.046C1830.03 203.843 1826.68 198.338 1819.99 195.531C1813.51 192.509 1804.45 189.81 1792.79 187.436C1783.72 185.493 1774.66 182.902 1765.59 179.664C1756.74 176.426 1749.29 171.893 1743.25 166.064C1737.42 160.019 1734.5 151.924 1734.5 141.777C1734.5 127.745 1739.9 116.088 1750.69 106.805C1761.49 97.3065 1776.6 92.5571 1796.03 92.5571C1813.95 92.5571 1828.41 96.8747 1839.42 105.51C1850.65 114.145 1857.23 126.342 1859.17 142.101H1826.14C1825.06 135.193 1821.83 129.796 1816.43 125.91C1811.25 122.025 1804.23 120.082 1795.38 120.082C1786.75 120.082 1780.05 121.917 1775.3 125.587C1770.56 129.041 1768.18 133.574 1768.18 139.187C1768.18 144.8 1771.42 149.225 1777.89 152.463C1784.59 155.702 1793.33 158.616 1804.12 161.207C1814.92 163.581 1824.85 166.388 1833.92 169.626C1843.2 172.648 1850.65 177.182 1856.26 183.226C1861.87 189.271 1864.68 198.122 1864.68 209.779C1864.89 224.459 1859.17 236.656 1847.52 246.371C1836.07 256.085 1820.42 260.943 1800.56 260.943Z" fill="url(#paint5_linear_50_34521)"/>
<path d="M1631.01 260.943C1617.41 260.943 1606.19 258.676 1597.34 254.142C1588.49 249.609 1581.9 243.672 1577.58 236.332C1573.27 228.777 1571.11 220.573 1571.11 211.722C1571.11 196.179 1577.15 183.874 1589.24 174.807C1601.33 165.74 1618.6 161.207 1641.05 161.207H1683.15V158.292C1683.15 145.771 1679.69 136.381 1672.79 130.12C1666.09 123.86 1657.35 120.729 1646.56 120.729C1637.06 120.729 1628.75 123.104 1621.62 127.853C1614.71 132.387 1610.5 139.187 1608.99 148.254H1574.67C1575.75 136.596 1579.63 126.666 1586.33 118.463C1593.23 110.043 1601.87 103.675 1612.23 99.3573C1622.81 94.8239 1634.36 92.5571 1646.88 92.5571C1669.33 92.5571 1686.71 98.4938 1699.02 110.367C1711.32 122.025 1717.47 138 1717.47 158.292V257.057H1687.68L1684.77 229.532C1680.23 238.383 1673.65 245.831 1665.01 251.876C1656.38 257.92 1645.05 260.943 1631.01 260.943ZM1637.81 233.094C1647.1 233.094 1654.87 230.935 1661.13 226.618C1667.6 222.084 1672.57 216.148 1676.02 208.808C1679.69 201.468 1681.96 193.372 1682.82 184.521H1644.61C1631.01 184.521 1621.3 186.896 1615.47 191.645C1609.86 196.395 1607.05 202.331 1607.05 209.455C1607.05 216.795 1609.75 222.624 1615.15 226.942C1620.76 231.043 1628.31 233.094 1637.81 233.094Z" fill="url(#paint6_linear_50_34521)"/>
<path d="M1301.04 257.057V96.4429H1331.48L1334.39 119.11C1339.57 110.907 1346.37 104.43 1354.79 99.6811C1363.43 94.9318 1373.36 92.5571 1384.58 92.5571C1410.06 92.5571 1427.76 102.595 1437.69 122.672C1443.52 113.389 1451.29 106.05 1461 100.653C1470.93 95.2556 1481.62 92.5571 1493.06 92.5571C1513.14 92.5571 1528.9 98.6017 1540.34 110.691C1551.78 122.78 1557.5 140.806 1557.5 164.769V257.057H1523.18V168.331C1523.18 137.244 1511.3 121.701 1487.56 121.701C1475.47 121.701 1465.54 126.234 1457.77 135.301C1450.21 144.368 1446.43 157.321 1446.43 174.159V257.057H1412.11V168.331C1412.11 137.244 1400.13 121.701 1376.16 121.701C1364.29 121.701 1354.47 126.234 1346.7 135.301C1339.14 144.368 1335.36 157.321 1335.36 174.159V257.057H1301.04Z" fill="url(#paint7_linear_50_34521)"/>
<path d="M1188.14 260.943C1172.6 260.943 1158.89 257.273 1147.01 249.933C1135.14 242.593 1125.86 232.554 1119.17 219.818C1112.47 207.081 1109.13 192.617 1109.13 176.426C1109.13 160.235 1112.47 145.879 1119.17 133.358C1125.86 120.621 1135.14 110.691 1147.01 103.567C1159.1 96.2271 1172.92 92.5571 1188.46 92.5571C1201.2 92.5571 1212.32 95.0397 1221.82 100.005C1231.53 104.97 1239.09 111.986 1244.48 121.053V23.9077H1278.81V257.057H1248.04L1244.48 232.123C1239.3 239.678 1232.18 246.371 1223.11 252.199C1214.04 258.028 1202.39 260.943 1188.14 260.943ZM1194.29 231.151C1208.97 231.151 1220.95 226.078 1230.23 215.932C1239.73 205.786 1244.48 192.725 1244.48 176.75C1244.48 160.559 1239.73 147.498 1230.23 137.568C1220.95 127.422 1208.97 122.348 1194.29 122.348C1179.61 122.348 1167.52 127.422 1158.02 137.568C1148.52 147.498 1143.78 160.559 1143.78 176.75C1143.78 187.328 1145.93 196.719 1150.25 204.922C1154.57 213.125 1160.51 219.602 1168.06 224.351C1175.83 228.885 1184.58 231.151 1194.29 231.151Z" fill="black"/>
<path d="M1017.42 257.057V96.4429H1048.18L1051.09 126.882C1056.71 116.304 1064.48 107.992 1074.41 101.948C1084.56 95.6874 1096.75 92.5571 1111 92.5571V128.501H1101.61C1092.11 128.501 1083.58 130.12 1076.03 133.358C1068.69 136.38 1062.75 141.67 1058.22 149.225C1053.9 156.565 1051.74 166.819 1051.74 179.988V257.057H1017.42Z" fill="black"/>
<path d="M911.985 260.943C898.385 260.943 887.159 258.676 878.308 254.142C869.457 249.609 862.873 243.672 858.555 236.332C854.238 228.777 852.079 220.573 852.079 211.722C852.079 196.179 858.124 183.874 870.213 174.807C882.302 165.74 899.572 161.207 922.024 161.207H964.12V158.292C964.12 145.771 960.666 136.381 953.758 130.12C947.066 123.86 938.323 120.729 927.529 120.729C918.03 120.729 909.719 123.104 902.595 127.853C895.687 132.387 891.477 139.187 889.966 148.254H855.641C856.72 136.596 860.606 126.666 867.299 118.463C874.207 110.043 882.842 103.675 893.204 99.3573C903.782 94.8239 915.332 92.5571 927.853 92.5571C950.304 92.5571 967.682 98.4938 979.987 110.367C992.292 122.025 998.445 138 998.445 158.292V257.057H968.654L965.739 229.532C961.206 238.383 954.622 245.831 945.986 251.876C937.351 257.92 926.018 260.943 911.985 260.943ZM918.786 233.094C928.068 233.094 935.84 230.935 942.101 226.618C948.577 222.084 953.542 216.148 956.996 208.808C960.666 201.468 962.933 193.372 963.796 184.521H925.586C911.985 184.521 902.271 186.896 896.442 191.645C890.829 196.395 888.023 202.331 888.023 209.455C888.023 216.795 890.721 222.624 896.118 226.942C901.731 231.043 909.287 233.094 918.786 233.094Z" fill="black"/>
<path d="M765.308 260.943C749.549 260.943 735.409 257.381 722.888 250.257C710.583 243.133 700.868 233.31 693.744 220.789C686.836 208.052 683.382 193.372 683.382 176.75C683.382 160.127 686.836 145.555 693.744 133.034C700.868 120.298 710.583 110.367 722.888 103.243C735.409 96.1191 749.549 92.5571 765.308 92.5571C785.169 92.5571 801.792 97.7382 815.176 108.1C828.776 118.463 837.519 132.495 841.405 150.197H805.462C803.303 141.346 798.553 134.438 791.214 129.472C783.874 124.507 775.238 122.025 765.308 122.025C756.889 122.025 749.117 124.183 741.993 128.501C734.869 132.603 729.148 138.755 724.831 146.959C720.513 154.946 718.354 164.877 718.354 176.75C718.354 188.623 720.513 198.662 724.831 206.865C729.148 214.852 734.869 221.005 741.993 225.323C749.117 229.64 756.889 231.799 765.308 231.799C775.238 231.799 783.874 229.316 791.214 224.351C798.553 219.386 803.303 212.37 805.462 203.303H841.405C837.735 220.573 829.1 234.497 815.5 245.075C801.899 255.653 785.169 260.943 765.308 260.943Z" fill="black"/>
<defs>
<linearGradient id="paint0_linear_50_34521" x1="-170.895" y1="118.534" x2="743.307" y2="103.423" gradientUnits="userSpaceOnUse">
<stop stop-color="#9D3306"/>
<stop offset="0.473958" stop-color="#3E0D0D"/>
<stop offset="1" stop-color="#842B05"/>
</linearGradient>
<linearGradient id="paint1_linear_50_34521" x1="0.16748" y1="142.425" x2="510.753" y2="142.425" gradientUnits="userSpaceOnUse">
<stop offset="0.247733" stop-color="#F79F19"/>
<stop offset="0.867367" stop-color="#EB041B"/>
</linearGradient>
<linearGradient id="paint2_linear_50_34521" x1="558.153" y1="549.108" x2="2356.75" y2="-83.0946" gradientUnits="userSpaceOnUse">
<stop stop-color="#F79F1A"/>
<stop offset="1" stop-color="#EC0B1B"/>
</linearGradient>
<linearGradient id="paint3_linear_50_34521" x1="558.153" y1="549.109" x2="2356.75" y2="-83.0943" gradientUnits="userSpaceOnUse">
<stop stop-color="#F79F1A"/>
<stop offset="1" stop-color="#EC0B1B"/>
</linearGradient>
<linearGradient id="paint4_linear_50_34521" x1="558.153" y1="549.108" x2="2356.75" y2="-83.0947" gradientUnits="userSpaceOnUse">
<stop stop-color="#F79F1A"/>
<stop offset="1" stop-color="#EC0B1B"/>
</linearGradient>
<linearGradient id="paint5_linear_50_34521" x1="558.154" y1="549.109" x2="2356.75" y2="-83.0943" gradientUnits="userSpaceOnUse">
<stop stop-color="#F79F1A"/>
<stop offset="1" stop-color="#EC0B1B"/>
</linearGradient>
<linearGradient id="paint6_linear_50_34521" x1="558.154" y1="549.108" x2="2356.75" y2="-83.0944" gradientUnits="userSpaceOnUse">
<stop stop-color="#F79F1A"/>
<stop offset="1" stop-color="#EC0B1B"/>
</linearGradient>
<linearGradient id="paint7_linear_50_34521" x1="558.153" y1="549.109" x2="2356.75" y2="-83.0943" gradientUnits="userSpaceOnUse">
<stop stop-color="#F79F1A"/>
<stop offset="1" stop-color="#EC0B1B"/>
</linearGradient>
</defs>
</svg>
