<svg width="4043" height="1576" viewBox="0 0 4043 1576" fill="none" xmlns="http://www.w3.org/2000/svg">
<path d="M242.48 484.324C219.154 484.324 198.743 479.95 181.247 471.203C163.752 462.455 149.589 450.167 138.759 434.338L130.012 476.826H58.7813V26.9506H138.759V211.275C148.756 197.528 161.878 185.448 178.123 175.035C194.785 164.621 216.238 159.414 242.48 159.414C271.639 159.414 297.674 166.495 320.584 180.658C343.494 194.821 361.614 214.19 374.944 238.767C388.273 263.344 394.938 291.252 394.938 322.494C394.938 353.735 388.273 381.644 374.944 406.221C361.614 430.381 343.494 449.542 320.584 463.705C297.674 477.451 271.639 484.324 242.48 484.324ZM225.61 414.343C251.02 414.343 272.056 405.804 288.718 388.726C305.38 371.647 313.711 349.57 313.711 322.494C313.711 295.418 305.38 273.132 288.718 255.637C272.056 238.142 251.02 229.395 225.61 229.395C199.784 229.395 178.54 238.142 161.878 255.637C145.632 272.716 137.509 294.793 137.509 321.869C137.509 348.945 145.632 371.23 161.878 388.726C178.54 405.804 199.784 414.343 225.61 414.343ZM579.477 484.324C548.236 484.324 520.535 477.659 496.375 464.33C472.215 451 453.262 432.255 439.516 408.095C425.77 383.935 418.897 356.026 418.897 324.368C418.897 292.294 425.561 263.76 438.891 238.767C452.637 213.774 471.382 194.404 495.125 180.658C519.285 166.495 547.611 159.414 580.102 159.414C610.51 159.414 637.378 166.079 660.705 179.408C684.032 192.738 702.152 211.066 715.065 234.393C728.394 257.304 735.059 282.921 735.059 311.247C735.059 315.829 734.851 320.619 734.434 325.618C734.434 330.617 734.226 335.823 733.809 341.239H498.25C499.916 365.399 508.247 384.352 523.243 398.098C538.655 411.844 557.192 418.717 578.852 418.717C595.098 418.717 608.636 415.177 619.466 408.095C630.713 400.597 639.044 391.017 644.459 379.353H725.687C719.855 398.931 710.066 416.843 696.32 433.088C682.99 448.917 666.328 461.414 646.334 470.578C626.756 479.742 604.47 484.324 579.477 484.324ZM580.102 224.396C560.524 224.396 543.237 230.019 528.241 241.266C513.245 252.097 503.665 268.759 499.499 291.252H653.832C652.582 270.841 645.084 254.596 631.338 242.516C617.592 230.436 600.513 224.396 580.102 224.396ZM916.669 484.324C885.011 484.324 857.102 477.451 832.942 463.705C808.782 449.959 789.621 430.797 775.458 406.221C761.712 381.644 754.839 353.527 754.839 321.869C754.839 290.211 761.712 262.094 775.458 237.517C789.621 212.941 808.782 193.779 832.942 180.033C857.102 166.287 885.011 159.414 916.669 159.414C956.241 159.414 989.566 169.828 1016.64 190.655C1043.72 211.066 1061 239.392 1068.5 275.632H984.15C979.985 260.636 971.654 248.973 959.157 240.641C947.077 231.894 932.706 227.52 916.044 227.52C893.967 227.52 875.222 235.851 859.81 252.513C844.397 269.175 836.691 292.294 836.691 321.869C836.691 351.444 844.397 374.563 859.81 391.225C875.222 407.887 893.967 416.218 916.044 416.218C932.706 416.218 947.077 412.052 959.157 403.721C971.654 395.39 979.985 383.519 984.15 368.106H1068.5C1061 403.097 1043.72 431.214 1016.64 452.458C989.566 473.702 956.241 484.324 916.669 484.324ZM1250.71 484.324C1220.72 484.324 1193.64 477.451 1169.48 463.705C1145.74 449.959 1126.78 431.006 1112.62 406.846C1098.87 382.269 1092 353.943 1092 321.869C1092 289.795 1099.08 261.677 1113.25 237.517C1127.41 212.941 1146.36 193.779 1170.1 180.033C1194.26 166.287 1221.34 159.414 1251.33 159.414C1280.91 159.414 1307.57 166.287 1331.31 180.033C1355.47 193.779 1374.42 212.941 1388.17 237.517C1402.33 261.677 1409.41 289.795 1409.41 321.869C1409.41 353.943 1402.33 382.269 1388.17 406.846C1374.42 431.006 1355.47 449.959 1331.31 463.705C1307.15 477.451 1280.28 484.324 1250.71 484.324ZM1250.71 414.968C1271.54 414.968 1289.66 407.262 1305.07 391.85C1320.48 376.021 1328.19 352.694 1328.19 321.869C1328.19 291.044 1320.48 267.926 1305.07 252.513C1289.66 236.684 1271.74 228.77 1251.33 228.77C1230.09 228.77 1211.76 236.684 1196.35 252.513C1181.35 267.926 1173.85 291.044 1173.85 321.869C1173.85 352.694 1181.35 376.021 1196.35 391.85C1211.76 407.262 1229.88 414.968 1250.71 414.968ZM1443.43 476.826V166.912H1514.04L1520.91 208.775C1530.91 193.779 1544.03 181.908 1560.28 173.16C1576.94 163.996 1596.1 159.414 1617.76 159.414C1665.66 159.414 1699.61 177.95 1719.61 215.024C1730.85 197.945 1745.85 184.407 1764.59 174.41C1783.76 164.413 1804.58 159.414 1827.08 159.414C1867.48 159.414 1898.52 171.494 1920.18 195.654C1941.84 219.814 1952.67 255.221 1952.67 301.875V476.826H1872.69V309.372C1872.69 282.713 1867.48 262.302 1857.07 248.139C1847.07 233.977 1831.45 226.895 1810.21 226.895C1788.55 226.895 1771.05 234.81 1757.72 250.639C1744.81 266.468 1738.35 288.545 1738.35 316.87V476.826H1658.37V309.372C1658.37 282.713 1653.17 262.302 1642.75 248.139C1632.34 233.977 1616.3 226.895 1594.64 226.895C1573.4 226.895 1556.11 234.81 1542.78 250.639C1529.87 266.468 1523.41 288.545 1523.41 316.87V476.826H1443.43ZM2141.69 484.324C2110.45 484.324 2082.75 477.659 2058.59 464.33C2034.43 451 2015.48 432.255 2001.73 408.095C1987.98 383.935 1981.11 356.026 1981.11 324.368C1981.11 292.294 1987.78 263.76 2001.11 238.767C2014.85 213.774 2033.6 194.404 2057.34 180.658C2081.5 166.495 2109.83 159.414 2142.32 159.414C2172.72 159.414 2199.59 166.079 2222.92 179.408C2246.25 192.738 2264.37 211.066 2277.28 234.393C2290.61 257.304 2297.27 282.921 2297.27 311.247C2297.27 315.829 2297.07 320.619 2296.65 325.618C2296.65 330.617 2296.44 335.823 2296.02 341.239H2060.46C2062.13 365.399 2070.46 384.352 2085.46 398.098C2100.87 411.844 2119.41 418.717 2141.07 418.717C2157.31 418.717 2170.85 415.177 2181.68 408.095C2192.93 400.597 2201.26 391.017 2206.67 379.353H2287.9C2282.07 398.931 2272.28 416.843 2258.53 433.088C2245.2 448.917 2228.54 461.414 2208.55 470.578C2188.97 479.742 2166.68 484.324 2141.69 484.324ZM2142.32 224.396C2122.74 224.396 2105.45 230.019 2090.46 241.266C2075.46 252.097 2065.88 268.759 2061.71 291.252H2216.05C2214.8 270.841 2207.3 254.596 2193.55 242.516C2179.81 230.436 2162.73 224.396 2142.32 224.396ZM2576.53 476.826C2544.04 476.826 2518.01 468.912 2498.43 453.083C2478.85 437.254 2469.06 409.137 2469.06 368.731V233.768H2415.95V166.912H2469.06L2478.43 83.8099H2549.04V166.912H2632.77V233.768H2549.04V369.356C2549.04 384.352 2552.16 394.766 2558.41 400.597C2565.08 406.012 2576.32 408.72 2592.15 408.72H2630.89V476.826H2576.53ZM2663.94 476.826V26.9506H2743.92V214.399C2754.34 197.32 2768.29 183.99 2785.79 174.41C2803.7 164.413 2824.11 159.414 2847.02 159.414C2885.34 159.414 2914.92 171.494 2935.74 195.654C2956.99 219.814 2967.61 255.221 2967.61 301.875V476.826H2888.26V309.372C2888.26 282.713 2882.84 262.302 2872.01 248.139C2861.6 233.977 2844.94 226.895 2822.03 226.895C2799.53 226.895 2780.79 234.81 2765.79 250.639C2751.21 266.468 2743.92 288.545 2743.92 316.87V476.826H2663.94ZM3157.18 484.324C3125.94 484.324 3098.24 477.659 3074.08 464.33C3049.92 451 3030.97 432.255 3017.22 408.095C3003.47 383.935 2996.6 356.026 2996.6 324.368C2996.6 292.294 3003.27 263.76 3016.6 238.767C3030.34 213.774 3049.09 194.404 3072.83 180.658C3096.99 166.495 3125.32 159.414 3157.81 159.414C3188.22 159.414 3215.08 166.079 3238.41 179.408C3261.74 192.738 3279.86 211.066 3292.77 234.393C3306.1 257.304 3312.76 282.921 3312.76 311.247C3312.76 315.829 3312.56 320.619 3312.14 325.618C3312.14 330.617 3311.93 335.823 3311.51 341.239H3075.95C3077.62 365.399 3085.95 384.352 3100.95 398.098C3116.36 411.844 3134.9 418.717 3156.56 418.717C3172.8 418.717 3186.34 415.177 3197.17 408.095C3208.42 400.597 3216.75 391.017 3222.16 379.353H3303.39C3297.56 398.931 3287.77 416.843 3274.02 433.088C3260.7 448.917 3244.03 461.414 3224.04 470.578C3204.46 479.742 3182.18 484.324 3157.18 484.324ZM3157.81 224.396C3138.23 224.396 3120.94 230.019 3105.95 241.266C3090.95 252.097 3081.37 268.759 3077.2 291.252H3231.54C3230.29 270.841 3222.79 254.596 3209.04 242.516C3195.3 230.436 3178.22 224.396 3157.81 224.396ZM103.144 643.8C88.5647 643.8 76.4847 639.426 66.904 630.679C57.7399 621.931 53.1578 610.893 53.1578 597.563C53.1578 584.233 57.7399 573.403 66.904 565.072C76.4847 556.324 88.5647 551.951 103.144 551.951C117.723 551.951 129.595 556.324 138.759 565.072C148.34 573.403 153.13 584.233 153.13 597.563C153.13 610.893 148.34 621.931 138.759 630.679C129.595 639.426 117.723 643.8 103.144 643.8ZM0.0474908 1139.29V1071.18H24.4158C38.162 1071.18 47.9509 1068.47 53.7826 1063.06C59.6144 1057.64 62.5302 1048.48 62.5302 1035.57V691.912H142.508V1035.57C142.508 1073.06 132.927 1099.72 113.766 1115.54C95.0212 1131.37 69.4033 1139.29 36.9123 1139.29H0.0474908ZM295.327 1009.32C268.668 1009.32 246.799 1005.16 229.72 996.828C212.642 988.08 199.937 976.625 191.606 962.462C183.275 948.299 179.109 932.679 179.109 915.6C179.109 886.858 190.356 863.531 212.85 845.619C235.344 827.708 269.084 818.752 314.072 818.752H392.8V811.254C392.8 790.01 386.76 774.389 374.68 764.392C362.6 754.395 347.604 749.396 329.693 749.396C313.447 749.396 299.284 753.353 287.204 761.268C275.124 768.766 267.627 780.013 264.711 795.008H186.607C188.69 772.515 196.188 752.937 209.101 736.275C222.431 719.613 239.509 706.908 260.337 698.16C281.164 688.996 304.491 684.414 330.318 684.414C374.472 684.414 409.254 695.453 434.664 717.53C460.073 739.607 472.778 770.848 472.778 811.254V1001.83H404.672L397.174 951.84C388.01 968.502 375.097 982.248 358.435 993.079C342.189 1003.91 321.153 1009.32 295.327 1009.32ZM313.447 946.841C336.358 946.841 354.061 939.343 366.557 924.348C379.471 909.352 387.593 890.815 390.926 868.738H322.82C301.575 868.738 286.371 872.695 277.207 880.61C268.043 888.108 263.461 897.48 263.461 908.727C263.461 920.807 268.043 930.179 277.207 936.844C286.371 943.509 298.451 946.841 313.447 946.841ZM663.443 1009.32C631.785 1009.32 603.876 1002.45 579.716 988.705C555.556 974.959 536.395 955.797 522.232 931.221C508.486 906.644 501.613 878.527 501.613 846.869C501.613 815.211 508.486 787.094 522.232 762.517C536.395 737.941 555.556 718.779 579.716 705.033C603.876 691.287 631.785 684.414 663.443 684.414C703.016 684.414 736.34 694.828 763.415 715.655C790.491 736.066 807.778 764.392 815.276 800.632H730.924C726.759 785.636 718.428 773.973 705.931 765.641C693.851 756.894 679.48 752.52 662.818 752.52C640.741 752.52 621.996 760.851 606.584 777.513C591.171 794.175 583.465 817.294 583.465 846.869C583.465 876.444 591.171 899.563 606.584 916.225C621.996 932.887 640.741 941.218 662.818 941.218C679.48 941.218 693.851 937.052 705.931 928.721C718.428 920.39 726.759 908.519 730.924 893.106H815.276C807.778 928.097 790.491 956.214 763.415 977.458C736.34 998.702 703.016 1009.32 663.443 1009.32ZM848.773 1001.83V551.951H928.751V817.502L1038.72 691.912H1133.69L1006.85 833.123L1154.31 1001.83H1054.34L928.751 846.244V1001.83H848.773ZM1426.51 1009.32C1396.52 1009.32 1369.45 1002.45 1345.29 988.705C1321.54 974.959 1302.59 956.006 1288.43 931.846C1274.68 907.269 1267.81 878.943 1267.81 846.869C1267.81 814.795 1274.89 786.677 1289.05 762.517C1303.21 737.941 1322.17 718.779 1345.91 705.033C1370.07 691.287 1397.15 684.414 1427.14 684.414C1456.71 684.414 1483.37 691.287 1507.12 705.033C1531.28 718.779 1550.23 737.941 1563.98 762.517C1578.14 786.677 1585.22 814.795 1585.22 846.869C1585.22 878.943 1578.14 907.269 1563.98 931.846C1550.23 956.006 1531.28 974.959 1507.12 988.705C1482.96 1002.45 1456.09 1009.32 1426.51 1009.32ZM1426.51 939.968C1447.34 939.968 1465.46 932.262 1480.87 916.85C1496.29 901.021 1503.99 877.694 1503.99 846.869C1503.99 816.044 1496.29 792.926 1480.87 777.513C1465.46 761.684 1447.55 753.77 1427.14 753.77C1405.89 753.77 1387.57 761.684 1372.15 777.513C1357.16 792.926 1349.66 816.044 1349.66 846.869C1349.66 877.694 1357.16 901.021 1372.15 916.85C1387.57 932.262 1405.69 939.968 1426.51 939.968ZM1633.61 1001.83V758.768H1591.12V691.912H1633.61V655.672C1633.61 618.182 1642.98 591.523 1661.73 575.694C1680.89 559.865 1706.71 551.951 1739.21 551.951H1773.57V620.057H1751.7C1737.96 620.057 1728.17 622.764 1722.33 628.179C1716.5 633.595 1713.59 642.759 1713.59 655.672V691.912H1780.44V758.768H1713.59V1001.83H1633.61ZM2024.54 1009.32C1997.88 1009.32 1976.01 1005.16 1958.93 996.828C1941.85 988.08 1929.15 976.625 1920.82 962.462C1912.48 948.299 1908.32 932.679 1908.32 915.6C1908.32 886.858 1919.57 863.531 1942.06 845.619C1964.55 827.708 1998.29 818.752 2043.28 818.752H2122.01V811.254C2122.01 790.01 2115.97 774.389 2103.89 764.392C2091.81 754.395 2076.81 749.396 2058.9 749.396C2042.66 749.396 2028.49 753.353 2016.41 761.268C2004.33 768.766 1996.84 780.013 1993.92 795.008H1915.82C1917.9 772.515 1925.4 752.937 1938.31 736.275C1951.64 719.613 1968.72 706.908 1989.55 698.16C2010.37 688.996 2033.7 684.414 2059.53 684.414C2103.68 684.414 2138.46 695.453 2163.87 717.53C2189.28 739.607 2201.99 770.848 2201.99 811.254V1001.83H2133.88L2126.38 951.84C2117.22 968.502 2104.31 982.248 2087.64 993.079C2071.4 1003.91 2050.36 1009.32 2024.54 1009.32ZM2042.66 946.841C2065.57 946.841 2083.27 939.343 2095.77 924.348C2108.68 909.352 2116.8 890.815 2120.14 868.738H2052.03C2030.78 868.738 2015.58 872.695 2006.42 880.61C1997.25 888.108 1992.67 897.48 1992.67 908.727C1992.67 920.807 1997.25 930.179 2006.42 936.844C2015.58 943.509 2027.66 946.841 2042.66 946.841ZM2240.82 1001.83V551.951H2320.8V1001.83H2240.82ZM2365.03 1001.83V551.951H2445.01V1001.83H2365.03ZM196.868 1526.83C164.377 1526.83 138.343 1518.91 118.765 1503.08C99.1867 1487.25 89.3978 1459.14 89.3978 1418.73V1283.77H36.2875V1216.91H89.3978L98.7702 1133.81H169.376V1216.91H253.103V1283.77H169.376V1419.36C169.376 1434.35 172.5 1444.77 178.748 1450.6C185.413 1456.01 196.66 1458.72 212.489 1458.72H251.228V1526.83H196.868ZM284.28 1526.83V1216.91H355.511L363.009 1275.02C374.256 1255.03 389.46 1239.2 408.621 1227.53C428.199 1215.45 451.109 1209.41 477.352 1209.41V1293.77H454.858C437.363 1293.77 421.742 1296.47 407.996 1301.89C394.25 1307.3 383.42 1316.68 375.505 1330.01C368.007 1343.34 364.258 1361.87 364.258 1385.62V1526.83H284.28ZM601.37 1534.32C574.711 1534.32 552.842 1530.16 535.764 1521.83C518.685 1513.08 505.98 1501.62 497.649 1487.46C489.318 1473.3 485.153 1457.68 485.153 1440.6C485.153 1411.86 496.4 1388.53 518.893 1370.62C541.387 1352.71 575.128 1343.75 620.115 1343.75H698.844V1336.25C698.844 1315.01 692.804 1299.39 680.724 1289.39C668.644 1279.39 653.648 1274.4 635.736 1274.4C619.49 1274.4 605.328 1278.35 593.248 1286.27C581.168 1293.77 573.67 1305.01 570.754 1320.01H492.651C494.733 1297.51 502.231 1277.94 515.144 1261.27C528.474 1244.61 545.553 1231.91 566.38 1223.16C587.208 1214 610.535 1209.41 636.361 1209.41C680.515 1209.41 715.297 1220.45 740.707 1242.53C766.117 1264.61 778.821 1295.85 778.821 1336.25V1526.83H710.715L703.217 1476.84C694.053 1493.5 681.14 1507.25 664.478 1518.08C648.233 1528.91 627.197 1534.32 601.37 1534.32ZM619.49 1471.84C642.401 1471.84 660.104 1464.34 672.601 1449.35C685.514 1434.35 693.637 1415.82 696.969 1393.74H628.863C607.619 1393.74 592.415 1397.7 583.25 1405.61C574.086 1413.11 569.504 1422.48 569.504 1433.73C569.504 1445.81 574.086 1455.18 583.25 1461.84C592.415 1468.51 604.495 1471.84 619.49 1471.84ZM960.114 1534.32C930.955 1534.32 904.921 1527.24 882.011 1513.08C859.1 1498.92 840.98 1479.55 827.651 1454.97C814.321 1430.39 807.656 1402.49 807.656 1371.24C807.656 1340 814.321 1312.3 827.651 1288.14C840.98 1263.57 859.1 1244.4 882.011 1230.66C904.921 1216.5 930.955 1209.41 960.114 1209.41C983.441 1209.41 1003.85 1213.79 1021.35 1222.54C1038.84 1231.28 1053.01 1243.57 1063.84 1259.4V1076.95H1143.81V1526.83H1072.58L1063.84 1482.46C1053.84 1496.21 1040.51 1508.29 1023.85 1518.7C1007.6 1529.12 986.357 1534.32 960.114 1534.32ZM976.984 1464.34C1002.81 1464.34 1023.85 1455.8 1040.09 1438.73C1056.75 1421.23 1065.09 1398.94 1065.09 1371.87C1065.09 1344.79 1056.75 1322.72 1040.09 1305.64C1023.85 1288.14 1002.81 1279.39 976.984 1279.39C951.575 1279.39 930.539 1287.93 913.877 1305.01C897.215 1322.09 888.884 1344.17 888.884 1371.24C888.884 1398.32 897.215 1420.61 913.877 1438.1C930.539 1455.6 951.575 1464.34 976.984 1464.34ZM1338.35 1534.32C1307.11 1534.32 1279.41 1527.66 1255.25 1514.33C1231.09 1501 1212.13 1482.26 1198.39 1458.1C1184.64 1433.94 1177.77 1406.03 1177.77 1374.37C1177.77 1342.29 1184.43 1313.76 1197.76 1288.77C1211.51 1263.77 1230.25 1244.4 1254 1230.66C1278.16 1216.5 1306.48 1209.41 1338.97 1209.41C1369.38 1209.41 1396.25 1216.08 1419.58 1229.41C1442.9 1242.74 1461.02 1261.07 1473.94 1284.39C1487.27 1307.3 1493.93 1332.92 1493.93 1361.25C1493.93 1365.83 1493.72 1370.62 1493.31 1375.62C1493.31 1380.62 1493.1 1385.82 1492.68 1391.24H1257.12C1258.79 1415.4 1267.12 1434.35 1282.11 1448.1C1297.53 1461.84 1316.06 1468.72 1337.72 1468.72C1353.97 1468.72 1367.51 1465.18 1378.34 1458.1C1389.59 1450.6 1397.92 1441.02 1403.33 1429.35H1484.56C1478.73 1448.93 1468.94 1466.84 1455.19 1483.09C1441.86 1498.92 1425.2 1511.41 1405.21 1520.58C1385.63 1529.74 1363.34 1534.32 1338.35 1534.32ZM1338.97 1274.4C1319.4 1274.4 1302.11 1280.02 1287.11 1291.27C1272.12 1302.1 1262.54 1318.76 1258.37 1341.25H1412.7C1411.45 1320.84 1403.96 1304.6 1390.21 1292.52C1376.46 1280.44 1359.39 1274.4 1338.97 1274.4ZM1651.8 1534.32C1624.31 1534.32 1600.15 1529.95 1579.32 1521.2C1558.49 1512.04 1541.83 1499.54 1529.33 1483.71C1516.84 1467.88 1509.34 1449.56 1506.84 1428.73H1587.44C1589.94 1440.81 1596.6 1451.22 1607.43 1459.97C1618.68 1468.3 1633.05 1472.47 1650.55 1472.47C1668.04 1472.47 1680.75 1468.93 1688.66 1461.84C1696.99 1454.76 1701.16 1446.64 1701.16 1437.48C1701.16 1424.15 1695.33 1415.19 1683.66 1410.61C1672 1405.61 1655.75 1400.82 1634.93 1396.24C1621.6 1393.32 1608.06 1389.78 1594.31 1385.62C1580.57 1381.45 1567.86 1376.24 1556.2 1369.99C1544.95 1363.33 1535.79 1355 1528.71 1345C1521.63 1334.59 1518.08 1321.88 1518.08 1306.89C1518.08 1279.39 1528.92 1256.28 1550.58 1237.53C1572.65 1218.79 1603.48 1209.41 1643.05 1209.41C1679.71 1209.41 1708.87 1217.95 1730.53 1235.03C1752.6 1252.11 1765.72 1275.65 1769.89 1305.64H1694.29C1689.7 1282.73 1672.42 1271.27 1642.43 1271.27C1627.43 1271.27 1615.77 1274.19 1607.43 1280.02C1599.52 1285.85 1595.56 1293.14 1595.56 1301.89C1595.56 1311.05 1601.6 1318.34 1613.68 1323.76C1625.76 1329.17 1641.8 1334.17 1661.79 1338.75C1683.46 1343.75 1703.24 1349.38 1721.15 1355.62C1739.48 1361.46 1754.06 1370.41 1764.89 1382.49C1775.72 1394.15 1781.14 1411.02 1781.14 1433.1C1781.55 1452.26 1776.55 1469.55 1766.14 1484.96C1755.73 1500.38 1740.73 1512.46 1721.15 1521.2C1701.58 1529.95 1678.46 1534.32 1651.8 1534.32ZM2077.72 1534.32C2046.07 1534.32 2018.16 1527.45 1994 1513.7C1969.84 1499.96 1950.68 1480.8 1936.51 1456.22C1922.77 1431.64 1915.89 1403.53 1915.89 1371.87C1915.89 1340.21 1922.77 1312.09 1936.51 1287.52C1950.68 1262.94 1969.84 1243.78 1994 1230.03C2018.16 1216.29 2046.07 1209.41 2077.72 1209.41C2117.3 1209.41 2150.62 1219.83 2177.7 1240.66C2204.77 1261.07 2222.06 1289.39 2229.56 1325.63H2145.21C2141.04 1310.64 2132.71 1298.97 2120.21 1290.64C2108.13 1281.89 2093.76 1277.52 2077.1 1277.52C2055.02 1277.52 2036.28 1285.85 2020.87 1302.51C2005.45 1319.18 1997.75 1342.29 1997.75 1371.87C1997.75 1401.44 2005.45 1424.56 2020.87 1441.22C2036.28 1457.89 2055.02 1466.22 2077.1 1466.22C2093.76 1466.22 2108.13 1462.05 2120.21 1453.72C2132.71 1445.39 2141.04 1433.52 2145.21 1418.11H2229.56C2222.06 1453.1 2204.77 1481.21 2177.7 1502.46C2150.62 1523.7 2117.3 1534.32 2077.72 1534.32ZM2369.9 1534.32C2343.24 1534.32 2321.37 1530.16 2304.29 1521.83C2287.21 1513.08 2274.51 1501.62 2266.18 1487.46C2257.85 1473.3 2253.68 1457.68 2253.68 1440.6C2253.68 1411.86 2264.93 1388.53 2287.42 1370.62C2309.92 1352.71 2343.66 1343.75 2388.64 1343.75H2467.37V1336.25C2467.37 1315.01 2461.33 1299.39 2449.25 1289.39C2437.17 1279.39 2422.18 1274.4 2404.27 1274.4C2388.02 1274.4 2373.86 1278.35 2361.78 1286.27C2349.7 1293.77 2342.2 1305.01 2339.28 1320.01H2261.18C2263.26 1297.51 2270.76 1277.94 2283.67 1261.27C2297 1244.61 2314.08 1231.91 2334.91 1223.16C2355.74 1214 2379.06 1209.41 2404.89 1209.41C2449.04 1209.41 2483.83 1220.45 2509.24 1242.53C2534.65 1264.61 2547.35 1295.85 2547.35 1336.25V1526.83H2479.24L2471.75 1476.84C2462.58 1493.5 2449.67 1507.25 2433.01 1518.08C2416.76 1528.91 2395.73 1534.32 2369.9 1534.32ZM2388.02 1471.84C2410.93 1471.84 2428.63 1464.34 2441.13 1449.35C2454.04 1434.35 2462.17 1415.82 2465.5 1393.74H2397.39C2376.15 1393.74 2360.94 1397.7 2351.78 1405.61C2342.62 1413.11 2338.03 1422.48 2338.03 1433.73C2338.03 1445.81 2342.62 1455.18 2351.78 1461.84C2360.94 1468.51 2373.02 1471.84 2388.02 1471.84ZM2586.18 1526.83V1216.91H2657.41L2664.91 1275.02C2676.16 1255.03 2691.36 1239.2 2710.52 1227.53C2730.1 1215.45 2753.01 1209.41 2779.25 1209.41V1293.77H2756.76C2739.27 1293.77 2723.64 1296.47 2709.9 1301.89C2696.15 1307.3 2685.32 1316.68 2677.41 1330.01C2669.91 1343.34 2666.16 1361.87 2666.16 1385.62V1526.83H2586.18ZM2933.4 1534.32C2904.24 1534.32 2878.2 1527.24 2855.29 1513.08C2832.38 1498.92 2814.26 1479.55 2800.93 1454.97C2787.6 1430.39 2780.94 1402.49 2780.94 1371.24C2780.94 1340 2787.6 1312.3 2800.93 1288.14C2814.26 1263.57 2832.38 1244.4 2855.29 1230.66C2878.2 1216.5 2904.24 1209.41 2933.4 1209.41C2956.72 1209.41 2977.13 1213.79 2994.63 1222.54C3012.12 1231.28 3026.29 1243.57 3037.12 1259.4V1076.95H3117.1V1526.83H3045.87L3037.12 1482.46C3027.12 1496.21 3013.79 1508.29 2997.13 1518.7C2980.88 1529.12 2959.64 1534.32 2933.4 1534.32ZM2950.27 1464.34C2976.09 1464.34 2997.13 1455.8 3013.37 1438.73C3030.04 1421.23 3038.37 1398.94 3038.37 1371.87C3038.37 1344.79 3030.04 1322.72 3013.37 1305.64C2997.13 1288.14 2976.09 1279.39 2950.27 1279.39C2924.86 1279.39 2903.82 1287.93 2887.16 1305.01C2870.5 1322.09 2862.17 1344.17 2862.17 1371.24C2862.17 1398.32 2870.5 1420.61 2887.16 1438.1C2903.82 1455.6 2924.86 1464.34 2950.27 1464.34ZM3289.14 1534.32C3261.65 1534.32 3237.49 1529.95 3216.66 1521.2C3195.83 1512.04 3179.17 1499.54 3166.67 1483.71C3154.18 1467.88 3146.68 1449.56 3144.18 1428.73H3224.78C3227.28 1440.81 3233.94 1451.22 3244.78 1459.97C3256.02 1468.3 3270.39 1472.47 3287.89 1472.47C3305.38 1472.47 3318.09 1468.93 3326 1461.84C3334.33 1454.76 3338.5 1446.64 3338.5 1437.48C3338.5 1424.15 3332.67 1415.19 3321 1410.61C3309.34 1405.61 3293.1 1400.82 3272.27 1396.24C3258.94 1393.32 3245.4 1389.78 3231.65 1385.62C3217.91 1381.45 3205.2 1376.24 3193.54 1369.99C3182.29 1363.33 3173.13 1355 3166.05 1345C3158.97 1334.59 3155.42 1321.88 3155.42 1306.89C3155.42 1279.39 3166.26 1256.28 3187.92 1237.53C3209.99 1218.79 3240.82 1209.41 3280.39 1209.41C3317.05 1209.41 3346.21 1217.95 3367.87 1235.03C3389.94 1252.11 3403.06 1275.65 3407.23 1305.64H3331.63C3327.04 1282.73 3309.76 1271.27 3279.77 1271.27C3264.77 1271.27 3253.11 1274.19 3244.78 1280.02C3236.86 1285.85 3232.9 1293.14 3232.9 1301.89C3232.9 1311.05 3238.94 1318.34 3251.02 1323.76C3263.1 1329.17 3279.14 1334.17 3299.14 1338.75C3320.8 1343.75 3340.58 1349.38 3358.49 1355.62C3376.82 1361.46 3391.4 1370.41 3402.23 1382.49C3413.06 1394.15 3418.48 1411.02 3418.48 1433.1C3418.89 1452.26 3413.9 1469.55 3403.48 1484.96C3393.07 1500.38 3378.07 1512.46 3358.49 1521.2C3338.92 1529.95 3315.8 1534.32 3289.14 1534.32Z" fill="black"/>
<rect x="18.1675" y="1291.54" width="1825.92" height="74.8096" transform="rotate(2.38537 18.1675 1291.54)" fill="url(#paint0_linear_53_34558)"/>
<defs>
<linearGradient id="paint0_linear_53_34558" x1="-277.813" y1="1594.37" x2="1669.77" y2="1029.74" gradientUnits="userSpaceOnUse">
<stop stop-color="#F89F1A"/>
<stop offset="1" stop-color="#ED171B"/>
</linearGradient>
</defs>
</svg>
